<svg width="800" height="800" viewBox="0 0 800 800" fill="none" xmlns="http://www.w3.org/2000/svg">
<path d="M100 290.313C100 241.195 100 216.636 113.088 202.312C117.735 197.226 123.382 193.155 129.676 190.355C147.404 182.469 170.703 190.235 217.3 205.767C252.875 217.626 270.663 223.555 288.637 222.941C295.238 222.716 301.8 221.837 308.228 220.317C325.73 216.18 341.33 205.78 372.533 184.979L418.61 154.259C458.58 127.614 478.563 114.292 501.503 111.22C524.443 108.148 547.227 115.743 592.797 130.933L631.623 143.875C664.623 154.875 681.123 160.375 690.563 173.47C700 186.564 700 203.957 700 238.743V509.69C700 558.807 700 583.367 686.913 597.69C682.267 602.777 676.617 606.847 670.323 609.647C652.597 617.533 629.297 609.767 582.7 594.233C547.123 582.377 529.337 576.447 511.363 577.06C504.763 577.287 498.2 578.163 491.773 579.683C474.27 583.82 458.67 594.22 427.467 615.023L381.39 645.74C341.42 672.387 321.437 685.71 298.498 688.78C275.558 691.853 252.773 684.257 207.203 669.067L168.377 656.127C135.376 645.127 118.876 639.627 109.438 626.53C100 613.437 100 596.043 100 561.257V290.313Z" stroke="#1E2E45" stroke-width="50"/>
<path d="M300 221.289V683.333" stroke="#1E2E45" stroke-width="50"/>
<path d="M500 100V566.667" stroke="#1E2E45" stroke-width="50"/>
</svg>
