<svg width="800" height="800" viewBox="0 0 800 800" fill="none" xmlns="http://www.w3.org/2000/svg">
<path d="M606 267.977L621.45 252.529C647.043 226.934 688.543 226.934 714.136 252.529C739.733 278.124 739.733 319.622 714.136 345.216L698.69 360.666M606 267.977C606 267.977 607.933 300.804 636.896 329.769C665.863 358.733 698.69 360.666 698.69 360.666M606 267.977L463.98 409.996C454.36 419.616 449.55 424.426 445.413 429.73C440.536 435.986 436.353 442.756 432.94 449.916C430.046 455.99 427.893 462.44 423.593 475.346L409.82 516.666L405.363 530.033M698.69 360.666L556.67 502.686C547.05 512.306 542.24 517.116 536.936 521.253C530.68 526.13 523.91 530.313 516.75 533.726C510.676 536.62 504.226 538.773 491.32 543.073L450 556.846L436.633 561.303M405.363 530.033L400.906 543.403C398.79 549.753 400.443 556.756 405.176 561.49C409.91 566.223 416.913 567.876 423.263 565.76L436.633 561.303M405.363 530.033L436.633 561.303" stroke="#1E2E45" stroke-width="50"/>
<path d="M266.667 433.333H350" stroke="#1E2E45" stroke-width="50" stroke-linecap="round"/>
<path d="M266.667 300H483.334" stroke="#1E2E45" stroke-width="50" stroke-linecap="round"/>
<path d="M266.667 566.667H316.667" stroke="#1E2E45" stroke-width="50" stroke-linecap="round"/>
<path d="M660.947 105.719C621.897 66.667 559.04 66.667 433.333 66.667H366.667C240.959 66.667 178.105 66.667 139.052 105.719C100 144.772 100 207.626 100 333.334V466.667C100 592.374 100 655.23 139.052 694.28C178.105 733.334 240.959 733.334 366.667 733.334H433.333C559.04 733.334 621.897 733.334 660.947 694.28C692.383 662.844 698.513 615.987 699.71 533.334" stroke="#1E2E45" stroke-width="50" stroke-linecap="round"/>
</svg>
