<svg width="800" height="800" viewBox="0 0 800 800" fill="none" xmlns="http://www.w3.org/2000/svg">
<g clip-path="url(#clip0_218_575)">
<path d="M66.5225 416.656V100.017C66.5225 100.017 283.978 87.2792 399.967 -0.0166016C515.939 87.2458 733.411 100.017 733.411 100.017V416.656C733.411 660.854 493.331 773.741 399.967 799.967C306.602 773.775 66.5225 662.454 66.5225 416.656ZM399.967 765.222C508.82 731.594 700.067 620.023 700.067 416.656V228.376L243.832 684.595C291.095 719.873 343.846 747.124 399.967 765.255V765.222ZM220.007 665.405C223.497 668.417 227.026 671.363 230.594 674.242L700.067 204.802V130.544C651.822 125.356 604.011 116.714 557.003 104.685L123.891 537.796C145.626 587.21 178.533 630.904 220.023 665.439L220.007 665.405ZM99.8669 130.544V416.656C99.682 452.108 105.575 487.329 117.289 520.79L538.463 99.6166C489.735 86.5643 443.105 66.665 399.967 40.5136C302.935 102.451 162.171 123.808 99.8669 130.544Z" fill="#1E2E45"/>
</g>
<defs>
<clipPath id="clip0_218_575">
<rect width="800" height="800" fill="white"/>
</clipPath>
</defs>
</svg>
