<svg width="800" height="800" viewBox="0 0 800 800" fill="none" xmlns="http://www.w3.org/2000/svg">
<path d="M91.667 538.124V166.598H41.667V538.124H91.667ZM758.334 538.124V164.444H708.334V538.124H758.334ZM668.53 75.6111C630.584 76.9331 580.987 80.8801 542.83 92.3028L557.17 140.202C588.81 130.731 632.974 126.88 670.27 125.581L668.53 75.6111ZM542.83 92.3028C509.664 102.232 472.354 121.627 443.274 138.459L468.317 181.734C496.667 165.327 529.83 148.387 557.17 140.202L542.83 92.3028ZM131.213 127.454C163.413 129.433 199.881 133.281 226.955 140.425L239.712 92.0801C207.685 83.6288 167.173 79.5695 134.281 77.5478L131.213 127.454ZM226.955 140.425C259.026 148.888 298.496 167.403 331.056 184.62L354.427 140.419C321.246 122.873 277.589 102.075 239.712 92.0801L226.955 140.425ZM466.014 691.04C499.047 673.43 539.96 654.02 573.047 645.29L560.287 596.944C521.277 607.237 476.09 629.007 442.494 646.917L466.014 691.04ZM573.047 645.29C599.81 638.227 635.774 634.38 667.734 632.384L664.61 582.48C631.94 584.524 591.97 588.584 560.287 596.944L573.047 645.29ZM357.507 646.917C323.909 629.007 278.724 607.237 239.712 596.944L226.955 645.29C260.04 654.02 300.954 673.43 333.987 691.04L357.507 646.917ZM239.712 596.944C208.031 588.584 168.059 584.524 135.39 582.48L132.268 632.384C164.227 634.38 200.189 638.227 226.955 645.29L239.712 596.944ZM708.334 538.124C708.334 560.984 689.39 580.93 664.61 582.48L667.734 632.384C716.874 629.31 758.334 589.33 758.334 538.124H708.334ZM758.334 164.444C758.334 115.667 719.49 73.8361 668.53 75.6111L670.27 125.581C690.764 124.867 708.334 141.725 708.334 164.444H758.334ZM41.667 538.124C41.667 589.33 83.1263 629.31 132.268 632.384L135.39 582.48C110.611 580.93 91.667 560.984 91.667 538.124H41.667ZM442.494 646.917C416.084 660.997 383.917 660.997 357.507 646.917L333.987 691.04C375.097 712.954 424.904 712.954 466.014 691.04L442.494 646.917ZM443.274 138.459C416.004 154.241 382.057 155.028 354.427 140.419L331.056 184.62C374.13 207.397 426.367 206.013 468.317 181.734L443.274 138.459ZM91.667 166.598C91.667 143.358 110.081 126.155 131.213 127.454L134.281 77.5478C82.3393 74.3555 41.667 116.626 41.667 166.598H91.667Z" fill="#1E2E45"/>
<path d="M400 183.35V683.35" stroke="#1E2E45" stroke-width="50"/>
</svg>
