<svg width="800" height="800" viewBox="0 0 800 800" fill="none" xmlns="http://www.w3.org/2000/svg">
<path d="M616.666 600C616.666 636.82 586.82 666.667 550 666.667C513.18 666.667 483.333 636.82 483.333 600M616.666 600C616.666 563.18 586.82 533.333 550 533.333C513.18 533.333 483.333 563.18 483.333 600M616.666 600H716.666M483.333 600H450M450 600H283.333M450 600V240C450 202.663 450 183.995 442.733 169.734C436.343 157.19 426.143 146.991 413.6 140.6C399.34 133.333 380.67 133.333 343.333 133.333H190C152.663 133.333 133.994 133.333 119.734 140.6C107.189 146.991 96.9907 157.19 90.5993 169.734C83.333 183.995 83.333 202.663 83.333 240V533.333C83.333 570.153 113.181 600 150 600M450 600V266.667H583.333L683.333 400M283.333 600C283.333 636.82 253.485 666.667 216.666 666.667C179.847 666.667 150 636.82 150 600M283.333 600C283.333 563.18 253.485 533.333 216.666 533.333C179.847 533.333 150 563.18 150 600M683.333 400V600M683.333 400H450" stroke="#1E2E45" stroke-width="66.6667" stroke-linecap="round" stroke-linejoin="round"/>
</svg>
