<svg width="800" height="800" viewBox="0 0 800 800" fill="none" xmlns="http://www.w3.org/2000/svg">
<path d="M366.667 233.333V100H566.667V366.667H700M700 366.667V700M700 366.667V233.333M466.667 233.333H467M466.667 366.667H467M600 466.667H600.333M600 600H600.333M198.485 533.333L293.709 372.187C301.266 359.397 305.044 353.003 309.949 350.84C314.229 348.957 319.104 348.957 323.384 350.84C328.289 353.003 332.068 359.397 339.623 372.187L434.85 533.333M198.485 533.333L100 700H533.333L434.85 533.333M198.485 533.333L266.667 600L316.667 533.333H434.85" stroke="#1E2E45" stroke-width="66.6667" stroke-linecap="round" stroke-linejoin="round"/>
</svg>
