<svg width="800" height="800" viewBox="0 0 800 800" fill="none" xmlns="http://www.w3.org/2000/svg">
<path d="M266.667 500.003C266.667 500.003 320 566.67 400 566.67C480 566.67 533.333 500.003 533.333 500.003M100 486.67V404.34C100 366.05 100 346.903 104.935 329.273C109.307 313.655 116.491 298.966 126.135 285.927C137.022 271.207 152.135 259.453 182.359 235.945L269.026 168.537C315.869 132.104 339.29 113.887 365.153 106.884C387.973 100.705 412.027 100.705 434.847 106.884C460.71 113.887 484.13 132.104 530.973 168.537L617.64 235.945C647.867 259.453 662.977 271.207 673.863 285.927C683.51 298.966 690.693 313.655 695.063 329.273C700 346.903 700 366.05 700 404.34V486.67C700 561.343 700 598.68 685.467 627.2C672.683 652.29 652.287 672.687 627.2 685.47C598.677 700.003 561.34 700.003 486.667 700.003H313.333C238.66 700.003 201.323 700.003 172.801 685.47C147.713 672.687 127.316 652.29 114.532 627.2C100 598.68 100 561.343 100 486.67Z" stroke="#1E2E45" stroke-width="66.6667" stroke-linecap="round" stroke-linejoin="round"/>
</svg>
