<svg width="800" height="800" viewBox="0 0 800 800" fill="none" xmlns="http://www.w3.org/2000/svg">
<path d="M433.334 100H273.334C235.997 100 217.328 100 203.068 107.266C190.523 113.658 180.325 123.856 173.933 136.401C166.667 150.661 166.667 169.33 166.667 206.667V593.333C166.667 630.67 166.667 649.34 173.933 663.6C180.325 676.143 190.523 686.343 203.068 692.733C217.328 700 235.997 700 273.334 700H526.667C564.004 700 582.674 700 596.934 692.733C609.477 686.343 619.677 676.143 626.067 663.6C633.334 649.34 633.334 630.67 633.334 593.333V300M433.334 100L633.334 300M433.334 100V246.667C433.334 265.335 433.334 274.669 436.967 281.8C440.164 288.072 445.26 293.171 451.534 296.367C458.664 300 467.997 300 486.667 300H633.334M400.004 400C333.424 400 333.39 416.207 333.337 444.307V444.417C333.278 474.427 333.337 483.333 400.004 483.333C466.67 483.333 466.67 490.183 466.67 522.223C466.67 546.3 466.67 566.667 400.004 566.667M400.004 400H466.67M400.004 400L400 366.667M400.004 566.667H333.337M400.004 566.667L400 600" stroke="#1E2E45" stroke-width="66.6667" stroke-linecap="round" stroke-linejoin="round"/>
</svg>
