<svg width="800" height="800" viewBox="0 0 800 800" fill="none" xmlns="http://www.w3.org/2000/svg">
<path d="M233.334 200H173.334C135.997 200 117.328 200 103.068 207.266C90.5233 213.658 80.3247 223.856 73.9333 236.401C66.667 250.661 66.667 269.33 66.667 306.667V593.333C66.667 630.67 66.667 649.34 73.9333 663.6C80.3247 676.143 90.5233 686.343 103.068 692.733C117.328 700 135.997 700 173.334 700H626.667C664.004 700 682.674 700 696.934 692.733C709.477 686.343 719.677 676.143 726.067 663.6C733.334 649.34 733.334 630.67 733.334 593.333V306.667C733.334 269.33 733.334 250.661 726.067 236.401C719.677 223.856 709.477 213.658 696.934 207.266C682.674 200 664.004 200 626.667 200H566.667M66.667 333.333H133.334M666.667 333.333H733.334M66.667 466.667H133.334M666.667 466.667H733.334M400 200V333.333M333.334 266.667H466.667M566.667 700V206.667C566.667 169.33 566.667 150.661 559.4 136.401C553.01 123.856 542.81 113.658 530.267 107.266C516.007 100 497.337 100 460 100H340C302.663 100 283.995 100 269.734 107.266C257.19 113.658 246.991 123.856 240.6 136.401C233.334 150.661 233.334 169.33 233.334 206.667V700H566.667ZM466.667 700V566.667C466.667 529.847 436.82 500 400 500C363.18 500 333.334 529.847 333.334 566.667V700H466.667Z" stroke="#1E2E45" stroke-width="66.6667" stroke-linecap="round" stroke-linejoin="round"/>
</svg>
