<svg width="800" height="800" viewBox="0 0 800 800" fill="none" xmlns="http://www.w3.org/2000/svg">
<path d="M100 700V566.667M300 700V433.333M500 700V500M700 700V366.667M281.311 185.355C290.36 194.404 302.86 200 316.667 200C330.474 200 342.973 194.404 352.023 185.355M281.311 185.355C272.263 176.307 266.667 163.807 266.667 150C266.667 122.386 289.052 100 316.667 100C344.28 100 366.667 122.386 366.667 150C366.667 163.807 361.07 176.307 352.023 185.355M281.311 185.355L185.355 281.311M352.023 185.355L447.977 281.311M185.355 281.311C176.307 272.263 163.807 266.667 150 266.667C122.386 266.667 100 289.052 100 316.667C100 344.28 122.386 366.667 150 366.667C177.614 366.667 200 344.28 200 316.667C200 302.86 194.404 290.36 185.355 281.311ZM447.977 281.311C438.93 290.36 433.333 302.86 433.333 316.667C433.333 344.28 455.72 366.667 483.333 366.667C510.947 366.667 533.333 344.28 533.333 316.667C533.333 302.86 527.737 290.36 518.69 281.311M447.977 281.311C457.027 272.263 469.527 266.667 483.333 266.667C497.14 266.667 509.64 272.263 518.69 281.311M518.69 281.311L614.643 185.355M614.643 185.355C623.693 194.404 636.193 200 650 200C677.613 200 700 177.614 700 150C700 122.386 677.613 100 650 100C622.387 100 600 122.386 600 150C600 163.807 605.597 176.307 614.643 185.355Z" stroke="#1E2E45" stroke-width="66.6667" stroke-linecap="round" stroke-linejoin="round"/>
</svg>
