<svg width="800" height="800" viewBox="0 0 800 800" fill="none" xmlns="http://www.w3.org/2000/svg">
<path d="M233.333 533.333H266.666M383.333 533.333H416.666M533.333 533.333H566.666M613.333 666.667H186.666C167.998 666.667 158.664 666.667 151.533 663.034C145.261 659.837 140.162 654.74 136.966 648.467C133.333 641.337 133.333 632.003 133.333 613.333V160C133.333 150.666 133.333 145.999 135.15 142.433C136.747 139.297 139.297 136.748 142.433 135.15C145.998 133.333 150.665 133.333 160 133.333H240C249.334 133.333 254.001 133.333 257.566 135.15C260.702 136.748 263.252 139.297 264.85 142.433C266.666 145.999 266.666 150.666 266.666 160V302.288C266.666 322.482 266.666 332.579 270.66 337.254C274.124 341.31 279.322 343.463 284.641 343.047C290.77 342.563 297.91 335.423 312.189 321.144L421.143 212.19C435.423 197.911 442.563 190.771 448.693 190.288C454.01 189.87 459.21 192.023 462.673 196.079C466.666 200.755 466.666 210.852 466.666 231.046V302.288C466.666 322.482 466.666 332.579 470.66 337.254C474.123 341.31 479.323 343.463 484.64 343.047C490.77 342.563 497.91 335.423 512.19 321.144L621.143 212.19C635.423 197.911 642.563 190.771 648.693 190.288C654.01 189.87 659.21 192.023 662.673 196.079C666.666 200.755 666.666 210.852 666.666 231.046V613.333C666.666 632.003 666.666 641.337 663.033 648.467C659.836 654.74 654.74 659.837 648.466 663.034C641.336 666.667 632.003 666.667 613.333 666.667Z" stroke="#1E2E45" stroke-width="66.6667" stroke-linecap="round"/>
</svg>
