<svg width="800" height="800" viewBox="0 0 800 800" fill="none" xmlns="http://www.w3.org/2000/svg">
<path d="M606.001 267.978L621.45 252.53C647.044 226.935 688.544 226.935 714.137 252.53C739.734 278.125 739.734 319.623 714.137 345.217L698.69 360.667M606.001 267.978C606.001 267.978 607.934 300.805 636.897 329.77C665.864 358.733 698.69 360.667 698.69 360.667M606.001 267.978L463.981 409.997C454.361 419.617 449.551 424.427 445.414 429.73C440.537 435.987 436.354 442.757 432.941 449.917C430.047 455.99 427.894 462.44 423.594 475.347L409.821 516.667L405.364 530.033M698.69 360.667L556.671 502.687C547.051 512.307 542.241 517.117 536.937 521.253C530.681 526.13 523.911 530.313 516.751 533.727C510.677 536.62 504.227 538.773 491.321 543.073L450.001 556.847L436.634 561.303M405.364 530.033L400.907 543.403C398.791 549.753 400.444 556.757 405.177 561.49C409.911 566.223 416.914 567.877 423.264 565.76L436.634 561.303M405.364 530.033L436.634 561.303" stroke="#CEA54A" stroke-width="50"/>
<path d="M266.668 433.333H350.001" stroke="#CEA54A" stroke-width="50" stroke-linecap="round"/>
<path d="M266.668 300H483.335" stroke="#CEA54A" stroke-width="50" stroke-linecap="round"/>
<path d="M266.668 566.667H316.668" stroke="#CEA54A" stroke-width="50" stroke-linecap="round"/>
<path d="M660.947 105.719C621.897 66.6668 559.04 66.6667 433.333 66.6667H366.667C240.959 66.6667 178.105 66.6668 139.052 105.719C100 144.772 100 207.625 100 333.333V466.667C100 592.373 100 655.23 139.052 694.28C178.105 733.333 240.959 733.333 366.667 733.333H433.333C559.04 733.333 621.897 733.333 660.947 694.28C692.383 662.843 698.513 615.987 699.71 533.333" stroke="#CEA54A" stroke-width="50" stroke-linecap="round"/>
</svg>
