<svg width="800" height="800" viewBox="0 0 800 800" fill="none" xmlns="http://www.w3.org/2000/svg">
<g clip-path="url(#clip0_237_177)">
<path d="M66.5234 416.656V100.017C66.5234 100.017 283.979 87.279 399.968 -0.0167542C515.94 87.2457 733.412 100.017 733.412 100.017V416.656C733.412 660.854 493.332 773.741 399.968 799.967C306.603 773.775 66.5234 662.454 66.5234 416.656ZM399.968 765.222C508.821 731.594 700.068 620.023 700.068 416.656V228.376L243.833 684.595C291.096 719.873 343.847 747.124 399.968 765.255V765.222ZM220.008 665.405C223.498 668.417 227.027 671.363 230.595 674.241L700.068 204.802V130.544C651.823 125.356 604.012 116.714 557.004 104.685L123.892 537.796C145.627 587.21 178.534 630.904 220.024 665.438L220.008 665.405ZM99.8679 130.544V416.656C99.683 452.108 105.576 487.329 117.29 520.79L538.464 99.6164C489.736 86.5641 443.106 66.6649 399.968 40.5134C302.936 102.451 162.172 123.808 99.8679 130.544Z" fill="#CEA54A"/>
</g>
<defs>
<clipPath id="clip0_237_177">
<rect width="800" height="800" fill="white"/>
</clipPath>
</defs>
</svg>
