<svg width="800" height="800" viewBox="0 0 800 800" fill="none" xmlns="http://www.w3.org/2000/svg">
<path d="M91.668 538.123V166.597H41.668V538.123H91.668ZM758.335 538.123V164.444H708.335V538.123H758.335ZM668.531 75.6107C630.585 76.9327 580.988 80.8796 542.831 92.3023L557.171 140.202C588.811 130.73 632.975 126.88 670.271 125.58L668.531 75.6107ZM542.831 92.3023C509.665 102.232 472.355 121.627 443.275 138.458L468.318 181.733C496.668 165.327 529.831 148.387 557.171 140.202L542.831 92.3023ZM131.214 127.453C163.414 129.432 199.882 133.281 226.956 140.425L239.713 92.0796C207.686 83.6283 167.174 79.569 134.282 77.5473L131.214 127.453ZM226.956 140.425C259.027 148.888 298.497 167.403 331.057 184.62L354.428 140.419C321.247 122.873 277.59 102.075 239.713 92.0796L226.956 140.425ZM466.015 691.04C499.048 673.43 539.961 654.02 573.048 645.29L560.288 596.943C521.278 607.237 476.091 629.007 442.495 646.917L466.015 691.04ZM573.048 645.29C599.811 638.227 635.775 634.38 667.735 632.383L664.611 582.48C631.941 584.523 591.971 588.583 560.288 596.943L573.048 645.29ZM357.508 646.917C323.91 629.007 278.725 607.237 239.713 596.943L226.956 645.29C260.041 654.02 300.955 673.43 333.988 691.04L357.508 646.917ZM239.713 596.943C208.032 588.583 168.06 584.523 135.391 582.48L132.269 632.383C164.228 634.38 200.19 638.227 226.956 645.29L239.713 596.943ZM708.335 538.123C708.335 560.983 689.391 580.93 664.611 582.48L667.735 632.383C716.875 629.31 758.335 589.33 758.335 538.123H708.335ZM758.335 164.444C758.335 115.667 719.491 73.8357 668.531 75.6107L670.271 125.58C690.765 124.867 708.335 141.724 708.335 164.444H758.335ZM41.668 538.123C41.668 589.33 83.1273 629.31 132.269 632.383L135.391 582.48C110.612 580.93 91.668 560.983 91.668 538.123H41.668ZM442.495 646.917C416.085 660.997 383.918 660.997 357.508 646.917L333.988 691.04C375.098 712.953 424.905 712.953 466.015 691.04L442.495 646.917ZM443.275 138.458C416.005 154.24 382.058 155.028 354.428 140.419L331.057 184.62C374.131 207.396 426.368 206.012 468.318 181.733L443.275 138.458ZM91.668 166.597C91.668 143.358 110.082 126.154 131.214 127.453L134.282 77.5473C82.3403 74.355 41.668 116.626 41.668 166.597H91.668Z" fill="#CEA54A"/>
<path d="M400 183.35V683.35" stroke="#CEA54A" stroke-width="50"/>
</svg>
