<svg width="800" height="800" viewBox="0 0 800 800" fill="none" xmlns="http://www.w3.org/2000/svg">
<g clip-path="url(#clip0_237_183)">
<path d="M266.633 766.571C262.214 766.571 257.975 764.815 254.85 761.69C251.725 758.565 249.969 754.326 249.969 749.906C249.969 745.487 251.725 741.248 254.85 738.123C257.975 734.997 262.214 733.242 266.633 733.242H383.285V100.654C347.265 103.883 312.657 116.224 282.72 136.514C252.783 156.805 228.5 184.378 212.157 216.64L206.441 213.49C200.349 221.504 191.979 227.492 182.427 230.671L290.864 463.026L283.298 466.608H299.962V483.273H300.063C281.107 504.258 257.96 521.034 232.117 532.515C206.274 543.997 178.31 549.929 150.031 549.929C121.752 549.929 93.7885 543.997 67.9455 532.515C42.1025 521.034 18.9553 504.258 0 483.273V466.608H16.6646L9.08242 463.109L125.735 213.14L126.917 213.69C120.237 204.974 116.628 194.292 116.652 183.31H149.981C149.981 187.73 151.737 191.969 154.862 195.094C157.988 198.219 162.226 199.975 166.646 199.975C171.066 199.975 175.304 198.219 178.429 195.094C181.554 191.969 183.31 187.73 183.31 183.31H193.209C211.962 152.694 237.215 126.573 267.182 106.798C297.149 87.0225 331.096 74.0759 366.621 68.8747C366.621 68.1415 366.621 67.4027 366.621 66.6584C366.621 57.8189 370.132 49.3415 376.383 43.0911C382.633 36.8407 391.111 33.3292 399.95 33.3292C408.789 33.3292 417.267 36.8407 423.517 43.0911C429.768 49.3415 433.279 57.8189 433.279 66.6584C433.279 67.4027 433.279 68.1415 433.279 68.8747C468.786 74.0897 502.714 87.0427 532.662 106.817C562.611 126.592 587.848 152.705 606.591 183.31H616.59C616.59 187.73 618.346 191.969 621.471 195.094C624.596 198.219 628.834 199.975 633.254 199.975C637.674 199.975 641.912 198.219 645.038 195.094C648.163 191.969 649.919 187.73 649.919 183.31H683.248C683.266 194.294 679.651 204.975 672.966 213.69L674.165 213.14L790.818 463.109L783.235 466.608H799.9V483.273H800C781.045 504.258 757.898 521.034 732.055 532.515C706.212 543.997 678.247 549.929 649.969 549.929C621.69 549.929 593.726 543.997 567.883 532.515C542.04 521.034 518.893 504.258 499.937 483.273V466.608H516.602L509.02 463.109L617.456 230.755C607.894 227.57 599.517 221.569 593.426 213.54L587.66 216.706C571.339 184.438 547.074 156.855 517.151 136.552C487.228 116.25 452.63 103.896 416.615 100.654V733.242H533.267C537.686 733.242 541.925 734.997 545.05 738.123C548.175 741.248 549.931 745.487 549.931 749.906C549.931 754.326 548.175 758.565 545.05 761.69C541.925 764.815 537.686 766.571 533.267 766.571H266.633ZM649.919 516.602C686.313 516.565 721.741 504.886 751.023 483.273H548.882C578.146 504.87 613.548 516.548 649.919 516.602ZM149.981 516.602C186.375 516.562 221.802 504.884 251.085 483.273H48.9441C78.2076 504.872 113.61 516.551 149.981 516.602ZM773.97 466.608L661.117 224.772C653.269 230.071 644.07 233.019 634.604 233.271L525.718 466.575L773.97 466.608ZM274.032 466.608L165.129 233.304C155.668 233.05 146.477 230.101 138.633 224.805L25.8467 466.608H274.032Z" fill="#CEA54A"/>
</g>
<defs>
<clipPath id="clip0_237_183">
<rect width="800" height="800" fill="white"/>
</clipPath>
</defs>
</svg>
