<svg width="800" height="800" viewBox="0 0 800 800" fill="none" xmlns="http://www.w3.org/2000/svg">
<path d="M333.333 233.333H333.667M466.667 233.333H467M100 466.667L700 700M700 466.667L100 700M600 283.333C600 182.081 510.457 100 400 100C289.543 100 200 182.081 200 283.333C200 316.726 282.983 348.033 300 375C323.661 412.493 300 466.667 333.333 466.667C333.333 466.667 376.623 466.667 400 466.667C423.377 466.667 450 466.667 466.667 466.667C500 466.667 476.34 412.493 500 375C517.017 348.033 600 316.726 600 283.333Z" stroke="#CEA54A" stroke-width="66.6667" stroke-linecap="round" stroke-linejoin="round"/>
</svg>
