<svg width="800" height="800" viewBox="0 0 800 800" fill="none" xmlns="http://www.w3.org/2000/svg">
<path d="M616.665 600C616.665 636.82 586.819 666.667 549.999 666.667C513.179 666.667 483.332 636.82 483.332 600M616.665 600C616.665 563.18 586.819 533.333 549.999 533.333C513.179 533.333 483.332 563.18 483.332 600M616.665 600H716.665M483.332 600H449.999M449.999 600H283.332M449.999 600V240C449.999 202.663 449.999 183.995 442.732 169.734C436.342 157.19 426.142 146.991 413.599 140.6C399.339 133.333 380.669 133.333 343.332 133.333H189.999C152.662 133.333 133.993 133.333 119.733 140.6C107.188 146.991 96.9897 157.19 90.5984 169.734C83.332 183.995 83.332 202.663 83.332 240V533.333C83.332 570.153 113.18 600 149.999 600M449.999 600V266.667H583.332L683.332 400M283.332 600C283.332 636.82 253.484 666.667 216.665 666.667C179.846 666.667 149.999 636.82 149.999 600M283.332 600C283.332 563.18 253.484 533.333 216.665 533.333C179.846 533.333 149.999 563.18 149.999 600M683.332 400V600M683.332 400H449.999" stroke="#CEA54A" stroke-width="66.6667" stroke-linecap="round" stroke-linejoin="round"/>
</svg>
