<svg width="800" height="800" viewBox="0 0 800 800" fill="none" xmlns="http://www.w3.org/2000/svg">
<path d="M333.335 433.333L466.668 566.667M466.668 433.333L333.335 566.667M433.335 100H273.335C235.998 100 217.329 100 203.069 107.266C190.524 113.658 180.326 123.856 173.934 136.401C166.668 150.661 166.668 169.33 166.668 206.667V593.333C166.668 630.67 166.668 649.34 173.934 663.6C180.326 676.143 190.524 686.343 203.069 692.733C217.329 700 235.998 700 273.335 700H526.668C564.005 700 582.675 700 596.935 692.733C609.478 686.343 619.678 676.143 626.068 663.6C633.335 649.34 633.335 630.67 633.335 593.333V300M433.335 100L633.335 300M433.335 100V246.667C433.335 265.335 433.335 274.669 436.968 281.8C440.165 288.072 445.261 293.171 451.535 296.367C458.665 300 467.998 300 486.668 300H633.335" stroke="#CEA54A" stroke-width="66.6667" stroke-linecap="round" stroke-linejoin="round"/>
</svg>
