<svg width="800" height="800" viewBox="0 0 800 800" fill="none" xmlns="http://www.w3.org/2000/svg">
<path d="M233.335 200H173.335C135.998 200 117.329 200 103.069 207.266C90.5243 213.658 80.3256 223.856 73.9343 236.401C66.668 250.661 66.668 269.33 66.668 306.667V593.333C66.668 630.67 66.668 649.34 73.9343 663.6C80.3256 676.143 90.5243 686.343 103.069 692.733C117.329 700 135.998 700 173.335 700H626.668C664.005 700 682.675 700 696.935 692.733C709.478 686.343 719.678 676.143 726.068 663.6C733.335 649.34 733.335 630.67 733.335 593.333V306.667C733.335 269.33 733.335 250.661 726.068 236.401C719.678 223.856 709.478 213.658 696.935 207.266C682.675 200 664.005 200 626.668 200H566.668M66.668 333.333H133.335M666.668 333.333H733.335M66.668 466.667H133.335M666.668 466.667H733.335M400.001 200V333.333M333.335 266.667H466.668M566.668 700V206.667C566.668 169.33 566.668 150.661 559.401 136.401C553.011 123.856 542.811 113.658 530.268 107.266C516.008 100 497.338 100 460.001 100H340.001C302.664 100 283.996 100 269.735 107.266C257.191 113.658 246.992 123.856 240.601 136.401C233.335 150.661 233.335 169.33 233.335 206.667V700H566.668ZM466.668 700V566.667C466.668 529.847 436.821 500 400.001 500C363.181 500 333.335 529.847 333.335 566.667V700H466.668Z" stroke="#CEA54A" stroke-width="66.6667" stroke-linecap="round" stroke-linejoin="round"/>
</svg>
