<svg width="800" height="800" viewBox="0 0 800 800" fill="none" xmlns="http://www.w3.org/2000/svg">
<path d="M233.332 533.333H266.665M383.332 533.333H416.665M533.332 533.333H566.665M613.332 666.667H186.665C167.997 666.667 158.663 666.667 151.532 663.033C145.26 659.837 140.161 654.74 136.965 648.467C133.332 641.337 133.332 632.003 133.332 613.333V160C133.332 150.666 133.332 145.999 135.149 142.433C136.746 139.297 139.296 136.748 142.432 135.15C145.997 133.333 150.664 133.333 159.999 133.333H239.999C249.333 133.333 254 133.333 257.565 135.15C260.701 136.748 263.251 139.297 264.849 142.433C266.665 145.999 266.665 150.666 266.665 160V302.288C266.665 322.482 266.665 332.578 270.659 337.253C274.123 341.31 279.321 343.463 284.64 343.047C290.769 342.563 297.909 335.423 312.188 321.144L421.142 212.19C435.422 197.91 442.562 190.771 448.692 190.288C454.009 189.87 459.209 192.023 462.672 196.079C466.665 200.755 466.665 210.852 466.665 231.046V302.288C466.665 322.482 466.665 332.578 470.659 337.253C474.122 341.31 479.322 343.463 484.639 343.047C490.769 342.563 497.909 335.423 512.189 321.144L621.142 212.19C635.422 197.91 642.562 190.771 648.692 190.288C654.009 189.87 659.209 192.023 662.672 196.079C666.665 200.755 666.665 210.852 666.665 231.046V613.333C666.665 632.003 666.665 641.337 663.032 648.467C659.835 654.74 654.739 659.837 648.465 663.033C641.335 666.667 632.002 666.667 613.332 666.667Z" stroke="#CEA54A" stroke-width="66.6667" stroke-linecap="round"/>
</svg>
