<svg width="800" height="800" viewBox="0 0 800 800" fill="none" xmlns="http://www.w3.org/2000/svg">
<path d="M120.833 691.666H512.5C517.1 691.666 520.833 687.933 520.833 683.333V116.666C520.833 112.066 517.1 108.333 512.5 108.333H120.833C116.233 108.333 112.5 112.066 112.5 116.666V683.333C112.5 687.933 116.233 691.666 120.833 691.666ZM129.167 125H504.167V675H129.167V125Z" fill="#CEA54A"/>
<path d="M160.415 281.25H252.082C256.682 281.25 260.415 277.517 260.415 272.917V181.25C260.415 176.65 256.682 172.917 252.082 172.917H160.415C155.815 172.917 152.082 176.65 152.082 181.25V272.917C152.082 277.517 155.815 281.25 160.415 281.25ZM168.749 189.584H243.749V264.584H168.749V189.584Z" fill="#CEA54A"/>
<path d="M462.499 172.917H316.665C312.065 172.917 308.332 176.65 308.332 181.25C308.332 185.85 312.065 189.584 316.665 189.584H462.499C467.099 189.584 470.832 185.85 470.832 181.25C470.832 176.65 467.099 172.917 462.499 172.917Z" fill="#CEA54A"/>
<path d="M462.499 245.833H316.665C312.065 245.833 308.332 249.566 308.332 254.166C308.332 258.766 312.065 262.5 316.665 262.5H462.499C467.099 262.5 470.832 258.766 470.832 254.166C470.832 249.566 467.099 245.833 462.499 245.833Z" fill="#CEA54A"/>
<path d="M462.499 318.75H160.415C155.815 318.75 152.082 322.483 152.082 327.083C152.082 331.683 155.815 335.417 160.415 335.417H462.499C467.099 335.417 470.832 331.683 470.832 327.083C470.832 322.483 467.099 318.75 462.499 318.75Z" fill="#CEA54A"/>
<path d="M462.499 391.667H160.415C155.815 391.667 152.082 395.4 152.082 400C152.082 404.6 155.815 408.334 160.415 408.334H462.499C467.099 408.334 470.832 404.6 470.832 400C470.832 395.4 467.099 391.667 462.499 391.667Z" fill="#CEA54A"/>
<path d="M462.499 464.583H160.415C155.815 464.583 152.082 468.316 152.082 472.916C152.082 477.516 155.815 481.25 160.415 481.25H462.499C467.099 481.25 470.832 477.516 470.832 472.916C470.832 468.316 467.099 464.583 462.499 464.583Z" fill="#CEA54A"/>
<path d="M462.499 537.5H160.415C155.815 537.5 152.082 541.233 152.082 545.833C152.082 550.433 155.815 554.167 160.415 554.167H462.499C467.099 554.167 470.832 550.433 470.832 545.833C470.832 541.233 467.099 537.5 462.499 537.5Z" fill="#CEA54A"/>
<path d="M462.499 610.417H160.415C155.815 610.417 152.082 614.15 152.082 618.75C152.082 623.35 155.815 627.084 160.415 627.084H462.499C467.099 627.084 470.832 623.35 470.832 618.75C470.832 614.15 467.099 610.417 462.499 610.417Z" fill="#CEA54A"/>
<path d="M679.167 367.467C683.767 367.467 687.501 363.733 687.501 359.133V265.9C687.501 232.85 662.667 205.783 630.717 201.633V152.883C630.717 133.35 614.834 117.467 595.301 117.467C575.767 117.467 559.884 133.35 559.884 152.883V203.583C551.284 207.833 545.301 216.617 545.301 226.85V247.517V589.183C545.301 590.133 545.551 591.033 545.851 591.883C545.901 592.017 545.851 592.167 545.901 592.3L577.451 670.5C580.401 677.817 587.401 682.55 595.284 682.55C603.167 682.55 610.184 677.817 613.134 670.517L644.684 592.317C644.734 592.183 644.701 592.033 644.734 591.9C645.034 591.05 645.284 590.167 645.284 589.2V247.533V226.867C645.284 225.65 645.084 224.5 644.934 223.317C660.251 231.467 670.817 247.4 670.817 265.917V359.15C670.834 363.733 674.567 367.467 679.167 367.467ZM561.967 255.85H628.634V580.85H561.967V255.85ZM628.634 239.183H561.967V226.85C561.967 221.683 566.167 217.467 571.351 217.467H619.267C624.434 217.467 628.651 221.667 628.651 226.85V239.183H628.634ZM576.551 152.883C576.551 142.55 584.967 134.133 595.301 134.133C605.634 134.133 614.051 142.55 614.051 152.883V200.8H576.551V152.883ZM597.701 664.25C597.167 665.583 596.101 665.867 595.301 665.867C594.517 665.867 593.451 665.583 592.917 664.25L565.984 597.5H624.634L597.701 664.25Z" fill="#CEA54A"/>
</svg>
