<svg width="800" height="800" viewBox="0 0 800 800" fill="none" xmlns="http://www.w3.org/2000/svg">
<path d="M683.332 591.667H612.232C638.315 574.55 655.599 545.083 655.599 511.617V120.617C655.599 116.017 651.865 112.283 647.265 112.283H620.665C618.932 112.283 617.415 112.933 616.082 113.833C615.932 113.933 615.732 113.883 615.599 114C583.415 138.617 536.215 138.6 504.115 114C503.982 113.9 503.782 113.933 503.632 113.833C502.299 112.933 500.782 112.283 499.049 112.283H472.432C467.832 112.283 464.099 116.017 464.099 120.617V191.667H450.249C448.515 191.667 446.999 192.317 445.665 193.217C445.515 193.317 445.315 193.267 445.182 193.383C418.832 213.533 380.182 213.517 353.865 193.383C353.732 193.283 353.532 193.317 353.382 193.217C352.049 192.317 350.532 191.667 348.799 191.667H335.882V120.617C335.882 116.017 332.149 112.283 327.549 112.283H300.932C299.199 112.283 297.682 112.933 296.349 113.833C296.199 113.933 295.999 113.883 295.865 114C263.749 138.6 216.549 138.617 184.382 114C184.249 113.9 184.049 113.933 183.899 113.833C182.565 112.933 181.049 112.283 179.315 112.283H152.732C148.132 112.283 144.399 116.017 144.399 120.617V511.617C144.399 537.267 154.332 561.333 172.382 579.383C177.049 584.05 182.132 588.117 187.532 591.667H116.665C112.065 591.667 108.332 595.4 108.332 600V683.333C108.332 687.933 112.065 691.667 116.665 691.667H683.332C687.932 691.667 691.665 687.933 691.665 683.333V600C691.665 595.4 687.932 591.667 683.332 591.667ZM492.082 579.383C496.749 584.05 501.849 588.117 507.249 591.667H447.115C459.632 582.55 469.399 570.05 475.099 555.417C479.565 564.083 484.999 572.3 492.082 579.383ZM507.382 135.667C521.032 143.133 536.115 147.333 551.515 148.483V523.033C551.515 527.633 555.249 531.367 559.849 531.367C564.449 531.367 568.182 527.633 568.182 523.033V148.483C583.582 147.333 598.665 143.133 612.315 135.667V508.733C612.315 537.667 588.782 561.2 559.849 561.2C545.799 561.2 532.615 555.75 522.749 545.9C512.815 535.85 507.365 522.65 507.365 508.733V135.667H507.382ZM480.782 128.95H490.732V508.733C490.732 527.05 497.899 544.417 510.949 557.65C523.999 570.7 541.382 577.883 559.882 577.883C597.999 577.883 629.015 546.867 629.015 508.75V128.95H638.949V511.617C638.949 555.217 603.482 590.7 559.882 590.7C538.699 590.7 518.799 582.5 503.899 567.6C488.999 552.7 480.799 532.817 480.799 511.617V200L480.782 128.95ZM357.149 214.967C367.782 220.417 379.382 223.483 391.215 224.517V535.617C391.215 540.217 394.949 543.95 399.549 543.95C404.149 543.95 407.882 540.217 407.882 535.617V224.517C419.699 223.483 431.315 220.4 441.932 214.967V523.7C441.932 547.067 422.915 566.083 399.549 566.083C388.199 566.083 377.549 561.683 369.582 553.733C361.565 545.6 357.149 534.933 357.149 523.7V214.967ZM340.482 208.333V523.717C340.482 539.35 346.599 554.183 357.765 565.483C368.899 576.617 383.749 582.767 399.549 582.767C432.099 582.767 458.599 556.283 458.599 523.717V208.333H464.115V511.617V526.117C464.115 561.717 435.149 590.7 399.549 590.7C382.232 590.7 365.982 584 353.832 571.833C341.682 559.667 334.965 543.433 334.965 526.117V524.217C335.515 520.083 335.899 515.9 335.899 511.617V208.333H340.482ZM187.665 135.667C201.315 143.133 216.399 147.35 231.799 148.5V523.033C231.799 527.633 235.532 531.367 240.132 531.367C244.732 531.367 248.465 527.633 248.465 523.033V148.5C263.882 147.367 278.965 143.15 292.599 135.683V508.733C292.599 537.667 269.065 561.2 240.132 561.2C226.099 561.2 212.915 555.75 203.049 545.9C193.115 535.833 187.649 522.633 187.649 508.733V135.667H187.665ZM161.065 511.617V128.95H170.999V508.733C170.999 527.05 178.182 544.4 191.232 557.65C204.282 570.7 221.649 577.883 240.149 577.883C278.265 577.883 309.282 546.867 309.282 508.75V128.95H319.232V196.35C318.665 197.467 318.299 198.667 318.299 200V520.8C313.682 560.05 280.599 590.7 240.149 590.7C218.949 590.7 199.065 582.5 184.182 567.6C169.265 552.7 161.065 532.817 161.065 511.617ZM324.365 557.1C328.382 566.9 334.332 575.9 342.032 583.616C345.065 586.65 348.432 589.183 351.832 591.667H292.515C305.782 582.967 316.782 571.1 324.365 557.1ZM674.999 675H124.999V608.333H674.999V675Z" fill="#CEA54A"/>
<path d="M264.134 650H535.884C540.484 650 544.217 646.266 544.217 641.666C544.217 637.066 540.484 633.333 535.884 633.333H264.134C259.534 633.333 255.801 637.066 255.801 641.666C255.801 646.266 259.517 650 264.134 650Z" fill="#CEA54A"/>
</svg>
