<svg width="800" height="800" viewBox="0 0 800 800" fill="none" xmlns="http://www.w3.org/2000/svg">
<path d="M433.333 100H273.333C235.996 100 217.327 100 203.067 107.266C190.522 113.658 180.324 123.856 173.932 136.401C166.666 150.661 166.666 169.33 166.666 206.667V593.333C166.666 630.67 166.666 649.34 173.932 663.6C180.324 676.143 190.522 686.343 203.067 692.733C217.327 700 235.996 700 273.333 700H526.666C564.003 700 582.673 700 596.933 692.733C609.476 686.343 619.676 676.143 626.066 663.6C633.333 649.34 633.333 630.67 633.333 593.333V300M433.333 100L633.333 300M433.333 100V246.667C433.333 265.335 433.333 274.669 436.966 281.8C440.163 288.072 445.259 293.171 451.533 296.367C458.663 300 467.996 300 486.666 300H633.333M400.003 400C333.423 400 333.389 416.207 333.336 444.307V444.417C333.277 474.427 333.336 483.333 400.003 483.333C466.669 483.333 466.669 490.183 466.669 522.223C466.669 546.3 466.669 566.667 400.003 566.667M400.003 400H466.669M400.003 400L399.999 366.667M400.003 566.667H333.336M400.003 566.667L399.999 600" stroke="#1E2E45" stroke-width="66.6667" stroke-linecap="round" stroke-linejoin="round"/>
</svg>
