<svg width="800" height="800" viewBox="0 0 800 800" fill="none" xmlns="http://www.w3.org/2000/svg">
<path d="M533.333 133.398C605.833 133.802 645.097 137.017 670.71 162.63C700 191.919 700 239.06 700 333.34V533.34C700 627.62 700 674.763 670.71 704.05C641.42 733.34 594.28 733.34 500 733.34H300C205.719 733.34 158.579 733.34 129.289 704.05C100 674.763 100 627.62 100 533.34V333.34C100 239.06 100 191.919 129.289 162.63C154.902 137.017 194.166 133.802 266.667 133.398" stroke="#1E2E45" stroke-width="50"/>
<path d="M266.666 466.667H533.333" stroke="#1E2E45" stroke-width="50" stroke-linecap="round"/>
<path d="M233.334 350H566.667" stroke="#1E2E45" stroke-width="50" stroke-linecap="round"/>
<path d="M300 583.333H500" stroke="#1E2E45" stroke-width="50" stroke-linecap="round"/>
<path d="M266.666 116.667C266.666 89.0524 289.052 66.6667 316.666 66.6667H483.333C510.946 66.6667 533.333 89.0524 533.333 116.667V150C533.333 177.614 510.946 200 483.333 200H316.666C289.052 200 266.666 177.614 266.666 150V116.667Z" stroke="#1E2E45" stroke-width="50"/>
</svg>
