<svg width="800" height="800" viewBox="0 0 800 800" fill="none" xmlns="http://www.w3.org/2000/svg">
<path d="M100 700L67.5203 692.503C64.936 703.703 68.303 715.443 76.4296 723.57C84.5566 731.697 96.2966 735.063 107.495 732.48L100 700ZM304.882 542.253C317.899 529.237 317.899 508.13 304.881 495.113C291.864 482.097 270.758 482.097 257.741 495.113L304.882 542.253ZM333.333 483.333C333.333 492.537 325.871 500 316.667 500V566.667C362.69 566.667 400 529.357 400 483.333H333.333ZM316.667 500C307.462 500 300 492.537 300 483.333H233.333C233.333 529.357 270.643 566.667 316.667 566.667V500ZM300 483.333C300 474.127 307.462 466.667 316.667 466.667V400C270.643 400 233.333 437.31 233.333 483.333H300ZM316.667 466.667C325.871 466.667 333.333 474.127 333.333 483.333H400C400 437.31 362.69 400 316.667 400V466.667ZM472.05 114.141L409.763 176.429L456.903 223.569L519.19 161.282L472.05 114.141ZM424.177 167.948L251.329 217.333L269.644 281.435L442.49 232.05L424.177 167.948ZM153.375 320.466L67.5203 692.503L132.48 707.493L218.335 335.457L153.375 320.466ZM107.495 732.48L479.533 646.623L464.543 581.663L92.5046 667.52L107.495 732.48ZM582.667 548.67L632.05 375.823L567.95 357.507L518.563 530.357L582.667 548.67ZM623.57 390.237L685.857 327.948L638.717 280.808L576.43 343.097L623.57 390.237ZM685.857 205.383L594.617 114.141L547.477 161.282L638.717 252.524L685.857 205.383ZM685.857 327.948C692.07 321.737 698.163 315.679 702.86 310.149C707.807 304.32 713.127 296.924 716.263 287.267L652.86 266.666C653.523 264.619 654.307 264.329 652.037 267.004C649.513 269.976 645.707 273.819 638.717 280.808L685.857 327.948ZM638.717 252.524C645.707 259.513 649.513 263.355 652.037 266.328C654.307 269.003 653.523 268.712 652.86 266.666L716.263 246.065C713.127 236.407 707.807 229.011 702.86 223.183C698.163 217.652 692.07 211.594 685.857 205.383L638.717 252.524ZM716.263 287.267C720.613 273.877 720.613 259.454 716.263 246.065L652.86 266.666L716.263 287.267ZM479.533 646.623C499.6 641.993 517.137 638.357 532.003 629.313L497.357 572.36C493.857 574.487 489.09 576 464.543 581.663L479.533 646.623ZM518.563 530.357C511.643 554.577 509.887 559.26 507.58 562.647L562.68 600.18C572.477 585.8 577.01 568.47 582.667 548.67L518.563 530.357ZM532.003 629.313C544.19 621.903 554.65 611.967 562.68 600.18L507.58 562.647C504.903 566.577 501.42 569.887 497.357 572.36L532.003 629.313ZM251.329 217.333C231.528 222.99 214.2 227.524 199.819 237.32L237.352 292.418C240.738 290.111 245.421 288.355 269.644 281.435L251.329 217.333ZM218.335 335.457C223.999 310.91 225.512 306.142 227.641 302.643L170.684 267.995C161.641 282.862 158.006 300.401 153.375 320.466L218.335 335.457ZM199.819 237.32C188.031 245.351 178.097 255.81 170.684 267.995L227.641 302.643C230.111 298.581 233.423 295.094 237.352 292.418L199.819 237.32ZM519.19 161.282C526.18 154.293 530.023 150.486 532.997 147.963C535.67 145.692 535.38 146.475 533.333 147.139L512.733 83.7357C503.073 86.8737 495.68 92.1927 489.85 97.1403C484.32 101.835 478.263 107.93 472.05 114.141L519.19 161.282ZM594.617 114.141C588.403 107.93 582.347 101.835 576.817 97.1403C570.987 92.1927 563.593 86.8737 553.933 83.7357L533.333 147.139C531.287 146.475 530.997 145.692 533.67 147.963C536.643 150.486 540.487 154.292 547.477 161.282L594.617 114.141ZM533.333 147.139L553.933 83.7357C540.543 79.3853 526.123 79.3853 512.733 83.7357L533.333 147.139ZM409.763 223.569L576.43 390.237L623.57 343.097L456.903 176.429L409.763 223.569ZM257.741 495.113L76.4296 676.43L123.57 723.57L304.882 542.253L257.741 495.113Z" fill="#1E2E45"/>
</svg>
