<svg width="800" height="800" viewBox="0 0 800 800" fill="none" xmlns="http://www.w3.org/2000/svg">
<path d="M200 233.333H233.333M200 333.333H233.333M366.667 333.333H400M366.667 433.333H400M200 433.333H233.333M366.667 233.333H400M233.333 700V600C233.333 563.18 263.181 533.333 300 533.333C336.82 533.333 366.667 563.18 366.667 600V700H233.333ZM233.333 700H100V153.333C100 134.665 100 125.331 103.633 118.2C106.829 111.928 111.928 106.829 118.2 103.633C125.331 100 134.665 100 153.333 100H446.667C465.337 100 474.67 100 481.8 103.633C488.073 106.829 493.17 111.928 496.367 118.2C500 125.331 500 134.665 500 153.333V300M656.667 450C656.667 477.613 634.28 500 606.667 500C579.053 500 556.667 477.613 556.667 450C556.667 422.387 579.053 400 606.667 400C634.28 400 656.667 422.387 656.667 450ZM716.667 700V683.333C716.667 637.31 679.357 600 633.333 600H583.333C537.31 600 500 637.31 500 683.333V700H716.667Z" stroke="#1E2E45" stroke-width="66.6667" stroke-linecap="round" stroke-linejoin="round"/>
</svg>
