<svg width="800" height="800" viewBox="0 0 800 800" fill="none" xmlns="http://www.w3.org/2000/svg">
<path d="M683.332 138.7H116.665C112.065 138.7 108.332 142.434 108.332 147.034V547.034C108.332 551.634 112.065 555.367 116.665 555.367H335.415C333.949 560.817 334.499 566.6 337.315 571.75C342.232 580.784 351.865 585.8 362.499 582.85V652.95C362.499 656.267 364.465 659.267 367.515 660.584C370.532 661.9 374.082 661.3 376.515 659.034L399.999 637.167L423.482 659.05C425.065 660.517 427.099 661.284 429.165 661.284C430.282 661.284 431.432 661.05 432.482 660.584C435.532 659.25 437.499 656.267 437.499 652.95V582.834C442.849 584.217 448.482 583.684 453.465 580.967C460.882 576.917 465.499 569.25 465.499 560.95C465.499 559.134 465.149 557.234 464.615 555.367H683.332C687.932 555.367 691.665 551.634 691.665 547.034V147.034C691.665 142.434 687.932 138.7 683.332 138.7ZM405.682 619.7C402.499 616.717 397.515 616.717 394.315 619.7L379.165 633.817V586.384C382.399 595.217 390.432 601.317 399.999 601.317C409.549 601.317 417.582 595.234 420.832 586.367V633.817L405.682 619.7ZM445.482 566.334C443.615 567.367 441.665 567.234 439.615 565.917C436.749 564.1 433.282 562.95 429.865 562.65C429.015 562.534 428.115 562.45 427.649 562.45C416.965 562.45 407.932 569.667 405.699 579.934C404.132 586.834 395.815 586.784 394.282 579.984C392.015 569.65 382.982 562.434 372.315 562.434C371.865 562.434 371.049 562.517 370.215 562.634C370.182 562.634 370.149 562.634 370.115 562.65H370.099C369.732 562.684 369.382 562.817 369.015 562.867C368.765 562.917 368.415 562.967 368.265 563.017C368.249 563.017 368.249 563.034 368.232 563.034C365.449 563.517 362.715 564.417 360.515 565.8C358.915 566.767 357.699 567.117 357.149 567.117C355.132 567.117 353.032 565.75 351.932 563.734C350.882 561.8 350.949 559.85 352.099 558.067C354.249 554.85 355.382 551.317 355.482 547.567C355.599 546.884 355.665 546.25 355.665 545.784C355.665 535.367 348.515 526.35 338.182 523.834C334.099 522.9 333.499 519.85 333.499 518.117C333.499 517.05 333.832 513.467 338.365 512.534C342.782 511.417 346.532 508.95 349.599 505.584C349.832 505.384 350.065 505.184 350.282 504.95C350.449 504.75 350.682 504.634 350.849 504.417C351.199 503.95 351.349 503.384 351.665 502.884C351.732 502.734 351.832 502.617 351.882 502.467C354.199 498.734 355.665 494.584 355.665 490.434C355.665 486.1 354.432 481.767 352.315 478.484C351.265 476.717 351.182 475.7 351.182 475.433C351.182 473.3 352.532 471.134 354.532 470.017C356.482 468.967 358.399 469.1 359.999 470.05C363.465 472.517 367.615 473.767 372.332 473.767C382.982 473.767 392.015 466.634 394.299 456.367C395.249 452.067 398.599 451.6 399.999 451.6C401.399 451.6 404.749 452.067 405.715 456.467C407.349 463.467 412.315 469.3 419.049 472.05C425.815 474.834 433.482 474.167 439.482 470.4C443.332 468.034 446.515 469.7 448.115 472.584C449.149 474.45 449.049 476.367 447.832 478.25C445.582 481.75 444.349 486.084 444.349 490.417C444.349 494.5 445.815 498.584 448.115 502.384C448.215 502.634 448.365 502.834 448.482 503.067C448.799 503.55 448.932 504.1 449.299 504.583C449.449 504.783 449.682 504.884 449.832 505.067C449.949 505.2 450.082 505.3 450.215 505.417C453.232 508.834 457.082 511.367 461.649 512.5C461.782 512.534 461.899 512.55 461.999 512.583C466.182 513.433 466.515 517.017 466.515 518.084C466.515 519.817 465.915 522.867 461.715 523.817C451.499 526.317 444.349 535.334 444.349 545.75C444.349 545.767 444.349 545.8 444.349 545.817C444.349 545.917 444.399 546.117 444.399 546.234C444.415 546.634 444.449 547.034 444.532 547.534C444.532 547.734 444.615 547.9 444.632 548.1C444.649 548.2 444.649 548.267 444.682 548.367C444.915 551.8 445.932 555.067 447.849 557.934C448.499 558.95 448.865 560.234 448.865 560.934C448.832 563.084 447.499 565.25 445.482 566.334ZM461.215 491.034C461.199 490.834 460.999 490.634 460.999 490.45C460.999 489.317 461.332 488.1 461.849 487.267C466.332 480.267 466.649 471.8 462.715 464.617C456.682 453.617 442.932 448.884 430.715 456.25C428.465 457.667 426.232 457.017 425.382 456.667C424.549 456.317 422.549 455.25 421.982 452.85C419.665 442.15 410.832 434.95 400.015 434.95C389.199 434.95 380.349 442.15 378.049 452.784C377.382 455.75 374.632 457.1 372.349 457.1C370.549 457.1 369.899 456.633 369.282 456.217C362.182 451.767 353.665 451.467 346.482 455.434C339.115 459.517 334.515 467.167 334.515 475.433C334.515 479.25 335.699 483.167 338.165 487.267C338.682 488.084 339.015 489.3 339.015 490.434C339.015 490.634 338.832 490.817 338.799 491.017H207.615C204.149 471.667 188.849 456.384 169.515 452.917V241.134C188.849 237.667 204.149 222.384 207.615 203.034H592.415C595.882 222.384 611.182 237.667 630.515 241.134V452.934C611.182 456.4 595.882 471.684 592.415 491.034H461.215ZM674.999 538.7H468.899C477.449 535.3 483.165 527.6 483.165 518.117C483.165 514.25 481.999 510.834 480.349 507.7H599.999C604.599 507.7 608.332 503.967 608.332 499.367C608.332 482.55 622.015 468.867 638.832 468.867C643.432 468.867 647.165 465.134 647.165 460.534V233.534C647.165 228.934 643.432 225.2 638.832 225.2C622.015 225.2 608.332 211.517 608.332 194.7C608.332 190.1 604.599 186.367 599.999 186.367H199.999C195.399 186.367 191.665 190.1 191.665 194.7C191.665 211.517 177.982 225.2 161.165 225.2C156.565 225.2 152.832 228.934 152.832 233.534V460.534C152.832 465.134 156.565 468.867 161.165 468.867C177.982 468.867 191.665 482.55 191.665 499.367C191.665 503.967 195.399 507.7 199.999 507.7H319.632C317.982 510.834 316.815 514.25 316.815 518.117C316.815 527.617 322.549 535.334 331.049 538.7H124.999V155.367H674.999V538.7Z" fill="#1E2E45"/>
<path d="M240.634 326.55H309.384C313.984 326.55 317.717 322.817 317.717 318.217V249.467C317.717 244.867 313.984 241.133 309.384 241.133H240.634C236.034 241.133 232.301 244.867 232.301 249.467V318.217C232.301 322.833 236.017 326.55 240.634 326.55ZM248.967 257.8H301.051V309.883H248.967V257.8Z" fill="#1E2E45"/>
<path d="M559.382 241.133H369.798C365.198 241.133 361.465 244.867 361.465 249.467C361.465 254.067 365.198 257.8 369.798 257.8H559.382C563.982 257.8 567.715 254.067 567.715 249.467C567.715 244.867 563.982 241.133 559.382 241.133Z" fill="#1E2E45"/>
<path d="M559.382 309.883H369.798C365.198 309.883 361.465 313.617 361.465 318.217C361.465 322.817 365.198 326.55 369.798 326.55H559.382C563.982 326.55 567.715 322.817 567.715 318.217C567.715 313.617 563.982 309.883 559.382 309.883Z" fill="#1E2E45"/>
<path d="M559.384 379.434H240.634C236.034 379.434 232.301 383.167 232.301 387.767C232.301 392.367 236.034 396.1 240.634 396.1H559.384C563.984 396.1 567.717 392.367 567.717 387.767C567.717 383.167 563.984 379.434 559.384 379.434Z" fill="#1E2E45"/>
<path d="M400 480.617C379.333 480.617 362.5 497.433 362.5 518.117C362.5 518.617 362.567 519.233 362.7 519.883C363.517 539.983 379.75 555.617 400 555.617C420.25 555.617 436.483 539.983 437.3 519.883C437.433 519.233 437.5 518.617 437.5 518.117C437.5 497.45 420.667 480.617 400 480.617ZM400 538.95C388.65 538.95 379.567 530.083 379.333 518.783C379.317 518.317 379.267 517.85 379.183 517.4C379.567 506.25 388.75 497.3 400 497.3C402.817 497.3 405.483 497.867 407.933 498.867C410.283 499.833 412.4 501.283 414.217 503C414.283 503.067 414.383 503.083 414.467 503.167C418.217 506.8 420.617 511.817 420.817 517.417C420.733 517.867 420.683 518.333 420.667 518.8C420.433 530.1 411.35 538.95 400 538.95Z" fill="#1E2E45"/>
</svg>
