<svg width="800" height="800" viewBox="0 0 800 800" fill="none" xmlns="http://www.w3.org/2000/svg">
<path d="M683.332 434.717H663.465C659.465 370.333 609.832 318.217 546.515 310.45C577.849 291.533 598.932 257.25 598.932 218.067C598.932 158.55 550.499 110.117 490.965 110.117C431.432 110.117 383.015 158.55 383.015 218.067C383.015 257.267 404.082 291.533 435.415 310.45C372.099 318.217 322.465 370.333 318.465 434.717H291.665V350C291.665 345.4 287.932 341.667 283.332 341.667H236.115V308.333C236.115 303.733 232.382 300 227.782 300H180.549V281.25C180.549 276.65 176.815 272.917 172.215 272.917H116.665C112.065 272.917 108.332 276.65 108.332 281.25V443.05V529.167C108.332 533.767 112.065 537.5 116.665 537.5H163.882V686.117C163.882 690.717 167.615 694.45 172.215 694.45H627.782C632.382 694.45 636.115 690.717 636.115 686.117V537.5H683.332C687.932 537.5 691.665 533.767 691.665 529.167V443.05C691.665 438.45 687.932 434.717 683.332 434.717ZM399.682 218.05C399.682 167.717 440.632 126.767 490.965 126.767C541.315 126.767 582.265 167.717 582.265 218.05C582.265 268.383 541.315 309.333 490.965 309.333C440.632 309.35 399.682 268.4 399.682 218.05ZM451.765 326.017H530.165C591.899 326.017 642.632 374.067 646.915 434.717H335.015C339.282 374.05 390.015 326.017 451.765 326.017ZM180.549 434.717V346.867H219.449V350V434.717H180.549ZM124.999 434.717V318.75H163.882V434.717H124.999ZM236.115 388.7H274.999V434.717H236.115V388.7ZM274.999 358.333V372.033H236.115V358.333H274.999ZM219.449 330.217H180.549V316.667H219.449V330.217ZM163.882 289.583V302.083H124.999V289.583H163.882ZM619.449 677.783H180.549V537.5H619.449V677.783ZM674.999 520.833H627.782H172.215H124.999V451.383H172.215H227.782H283.332H326.382H655.549H674.999V520.833Z" fill="#1E2E45"/>
</svg>
