<svg width="800" height="800" viewBox="0 0 800 800" fill="none" xmlns="http://www.w3.org/2000/svg">
<path fill-rule="evenodd" clip-rule="evenodd" d="M400.001 733.333C215.906 733.333 66.668 584.093 66.668 400C66.668 215.905 215.906 66.6665 400.001 66.6665C584.095 66.6665 733.335 215.905 733.335 400C733.335 584.093 584.095 733.333 400.001 733.333ZM409.525 291.666C342.781 291.666 291.668 341.766 291.668 400C291.668 458.233 342.781 508.333 409.525 508.333C426.581 508.333 442.701 505.013 457.228 499.09C470.011 493.876 484.605 500.013 489.818 512.8C495.031 525.583 488.891 540.173 476.108 545.387C455.635 553.737 433.105 558.333 409.525 558.333C318.473 558.333 241.668 489.04 241.668 400C241.668 310.958 318.473 241.666 409.525 241.666C433.105 241.666 455.635 246.263 476.108 254.612C488.891 259.825 495.031 274.416 489.818 287.201C484.605 299.986 470.011 306.124 457.228 300.91C442.701 294.987 426.581 291.666 409.525 291.666Z" fill="#CEA54A"/>
</svg>
