<svg width="800" height="800" viewBox="0 0 800 800" fill="none" xmlns="http://www.w3.org/2000/svg">
<path d="M100.002 700L67.5223 692.503C64.9379 703.703 68.3049 715.443 76.4316 723.57C84.5586 731.697 96.2986 735.063 107.497 732.48L100.002 700ZM304.884 542.253C317.901 529.237 317.901 508.13 304.883 495.113C291.866 482.097 270.76 482.097 257.743 495.113L304.884 542.253ZM333.335 483.333C333.335 492.537 325.873 500 316.669 500V566.667C362.692 566.667 400.002 529.357 400.002 483.333H333.335ZM316.669 500C307.464 500 300.002 492.537 300.002 483.333H233.335C233.335 529.357 270.645 566.667 316.669 566.667V500ZM300.002 483.333C300.002 474.127 307.464 466.667 316.669 466.667V400C270.645 400 233.335 437.31 233.335 483.333H300.002ZM316.669 466.667C325.873 466.667 333.335 474.127 333.335 483.333H400.002C400.002 437.31 362.692 400 316.669 400V466.667ZM472.052 114.141L409.765 176.429L456.905 223.569L519.192 161.282L472.052 114.141ZM424.179 167.948L251.331 217.333L269.646 281.435L442.492 232.05L424.179 167.948ZM153.377 320.466L67.5223 692.503L132.482 707.493L218.337 335.457L153.377 320.466ZM107.497 732.48L479.535 646.623L464.545 581.663L92.5066 667.52L107.497 732.48ZM582.669 548.67L632.052 375.823L567.952 357.507L518.565 530.357L582.669 548.67ZM623.572 390.237L685.859 327.948L638.719 280.808L576.432 343.097L623.572 390.237ZM685.859 205.383L594.619 114.141L547.479 161.282L638.719 252.524L685.859 205.383ZM685.859 327.948C692.072 321.737 698.165 315.679 702.862 310.149C707.809 304.32 713.129 296.924 716.265 287.267L652.862 266.666C653.525 264.619 654.309 264.329 652.039 267.004C649.515 269.976 645.709 273.819 638.719 280.808L685.859 327.948ZM638.719 252.524C645.709 259.513 649.515 263.355 652.039 266.328C654.309 269.003 653.525 268.712 652.862 266.666L716.265 246.065C713.129 236.407 707.809 229.011 702.862 223.183C698.165 217.652 692.072 211.594 685.859 205.383L638.719 252.524ZM716.265 287.267C720.615 273.877 720.615 259.454 716.265 246.065L652.862 266.666L716.265 287.267ZM479.535 646.623C499.602 641.993 517.139 638.357 532.005 629.313L497.359 572.36C493.859 574.487 489.092 576 464.545 581.663L479.535 646.623ZM518.565 530.357C511.645 554.577 509.889 559.26 507.582 562.647L562.682 600.18C572.479 585.8 577.012 568.47 582.669 548.67L518.565 530.357ZM532.005 629.313C544.192 621.903 554.652 611.967 562.682 600.18L507.582 562.647C504.905 566.577 501.422 569.887 497.359 572.36L532.005 629.313ZM251.331 217.333C231.53 222.99 214.202 227.524 199.821 237.32L237.354 292.418C240.74 290.111 245.423 288.355 269.646 281.435L251.331 217.333ZM218.337 335.457C224.001 310.91 225.514 306.142 227.643 302.643L170.686 267.995C161.643 282.862 158.008 300.401 153.377 320.466L218.337 335.457ZM199.821 237.32C188.033 245.351 178.099 255.81 170.686 267.995L227.643 302.643C230.113 298.581 233.425 295.094 237.354 292.418L199.821 237.32ZM519.192 161.282C526.182 154.293 530.025 150.486 532.999 147.963C535.672 145.692 535.382 146.475 533.335 147.139L512.735 83.7357C503.075 86.8737 495.682 92.1927 489.852 97.1403C484.322 101.835 478.265 107.93 472.052 114.141L519.192 161.282ZM594.619 114.141C588.405 107.93 582.349 101.835 576.819 97.1403C570.989 92.1927 563.595 86.8737 553.935 83.7357L533.335 147.139C531.289 146.475 530.999 145.692 533.672 147.963C536.645 150.486 540.489 154.292 547.479 161.282L594.619 114.141ZM533.335 147.139L553.935 83.7357C540.545 79.3853 526.125 79.3853 512.735 83.7357L533.335 147.139ZM409.765 223.569L576.432 390.237L623.572 343.097L456.905 176.429L409.765 223.569ZM257.743 495.113L76.4316 676.43L123.572 723.57L304.884 542.253L257.743 495.113Z" fill="#CEA54A"/>
</svg>
