<svg width="800" height="800" viewBox="0 0 800 800" fill="none" xmlns="http://www.w3.org/2000/svg">
<path d="M733.335 733.333H66.668" stroke="#CEA54A" stroke-width="50" stroke-linecap="round"/>
<path d="M566.665 733.333V200C566.665 137.146 566.665 105.719 547.139 86.1928C527.612 66.6665 496.185 66.6665 433.332 66.6665H366.665C303.811 66.6665 272.384 66.6665 252.858 86.1928C233.332 105.719 233.332 137.146 233.332 200V733.333" stroke="#CEA54A" stroke-width="50"/>
<path d="M699.999 733.333V383.333C699.999 336.517 699.999 313.11 688.762 296.295C683.899 289.016 677.649 282.766 670.369 277.902C653.555 266.667 630.149 266.667 583.332 266.667" stroke="#CEA54A" stroke-width="50"/>
<path d="M100 733.333V383.333C100 336.517 100 313.11 111.235 296.295C116.099 289.016 122.349 282.766 129.629 277.902C146.444 266.667 169.851 266.667 216.667 266.667" stroke="#CEA54A" stroke-width="50"/>
<path d="M400 733.333V633.333" stroke="#CEA54A" stroke-width="50" stroke-linecap="round"/>
<path d="M333.332 166.667H466.665" stroke="#CEA54A" stroke-width="50" stroke-linecap="round"/>
<path d="M333.332 266.667H466.665" stroke="#CEA54A" stroke-width="50" stroke-linecap="round"/>
<path d="M333.332 366.667H466.665" stroke="#CEA54A" stroke-width="50" stroke-linecap="round"/>
<path d="M333.332 466.667H466.665" stroke="#CEA54A" stroke-width="50" stroke-linecap="round"/>
</svg>
