<svg width="800" height="800" viewBox="0 0 800 800" fill="none" xmlns="http://www.w3.org/2000/svg">
<path d="M100 733.333H700" stroke="#CEA54A" stroke-width="50" stroke-linecap="round" stroke-linejoin="round"/>
<path d="M100 366.667C100 335.24 100 319.526 109.763 309.763C119.526 300 135.24 300 166.667 300C198.094 300 213.807 300 223.57 309.763C233.333 319.526 233.333 335.24 233.333 366.667V566.667C233.333 598.093 233.333 613.807 223.57 623.57C213.807 633.333 198.094 633.333 166.667 633.333C135.24 633.333 119.526 633.333 109.763 623.57C100 613.807 100 598.093 100 566.667V366.667Z" stroke="#CEA54A" stroke-width="50"/>
<path d="M333.332 233.333C333.332 201.906 333.332 186.193 343.095 176.43C352.859 166.667 368.572 166.667 399.999 166.667C431.425 166.667 447.139 166.667 456.902 176.43C466.665 186.193 466.665 201.906 466.665 233.333V566.666C466.665 598.093 466.665 613.806 456.902 623.57C447.139 633.333 431.425 633.333 399.999 633.333C368.572 633.333 352.859 633.333 343.095 623.57C333.332 613.806 333.332 598.093 333.332 566.666V233.333Z" stroke="#CEA54A" stroke-width="50"/>
<path d="M566.668 133.333C566.668 101.906 566.668 86.1928 576.431 76.4295C586.195 66.6665 601.908 66.6665 633.335 66.6665C664.761 66.6665 680.475 66.6665 690.238 76.4295C700.001 86.1928 700.001 101.906 700.001 133.333V566.666C700.001 598.093 700.001 613.806 690.238 623.57C680.475 633.333 664.761 633.333 633.335 633.333C601.908 633.333 586.195 633.333 576.431 623.57C566.668 613.806 566.668 598.093 566.668 566.666V133.333Z" stroke="#CEA54A" stroke-width="50"/>
</svg>
